HIERARCHY
ROOT ui
{
	 OFFSET 0 0 0
	 CHANNELS 3 XPosition YPosition Z Position
	 EndSite
	 {
	 OFFSET 0 -1 0
	 }
}
ROOT li
{
	 OFFSET 0 0 0
	 CHANNELS 3 XPosition YPosition Z Position
	 EndSite
	 {
	 OFFSET 0 -1 0
	 }
}
ROOT ul
{
	 OFFSET 0 0 0
	 CHANNELS 3 XPosition YPosition Z Position
	 EndSite
	 {
	 OFFSET 0 -1 0
	 }
}
ROOT ll
{
	 OFFSET 0 0 0
	 CHANNELS 3 XPosition YPosition Z Position
	 EndSite
	 {
	 OFFSET 0 -1 0
	 }
}
ROOT tt
{
	 OFFSET 0 0 0
	 CHANNELS 3 XPosition YPosition Z Position
	 EndSite
	 {
	 OFFSET 0 -1 0
	 }
}
ROOT tb
{
	 OFFSET 0 0 0
	 CHANNELS 3 XPosition YPosition Z Position
	 EndSite
	 {
	 OFFSET 0 -1 0
	 }
}
ROOT td
{
	 OFFSET 0 0 0
	 CHANNELS 3 XPosition YPosition Z Position
	 EndSite
	 {
	 OFFSET 0 -1 0
	 }
}
ROOT v
{
	 OFFSET 0 0 0
	 CHANNELS 3 XPosition YPosition Z Position
	 EndSite
	 {
	 OFFSET 0 -1 0
	 }
}
ROOT bn
{
	 OFFSET 0 0 0
	 CHANNELS 3 XPosition YPosition Z Position
	 EndSite
	 {
	 OFFSET 0 -1 0
	 }
}
MOTION
Frames: 10
Frame Time: 0.002
-0.009384255409240722	0.0012618900537490845	0		0.5239600830078125	-2.38241455078125	0		-1.0798623046875	0.09082588195800781	0		-0.6657179565429687	-2.5626123046875	0		1.3486788330078125	-0.7899514770507813	0		3.082410888671875	-0.03909159088134766	0		4.63435009765625	0.09914488220214844	0		5.6109169921875	0.20491648864746093	0		-0.20978982543945313	5.92119921875	0		
0.038519458770751955	-0.0012308189868927002	0		0.5476951293945312	-2.383488037109375	0		-1.086979736328125	0.0874801025390625	0		-0.7399021606445313	-2.557701416015625	0		1.3455474853515625	-0.7905709228515625	0		3.0811083984375	-0.051887332916259764	0		4.63129052734375	0.09826018524169922	0		5.6045537109375	0.21730183410644532	0		-0.18497972106933594	5.94118115234375	0		
-3.9605599641799925E-4	0.00897211456298828	0		0.5184513549804688	-2.38051806640625	0		-1.0860311279296875	0.09000030517578125	0		-0.7042107543945313	-2.557885986328125	0		1.342368408203125	-0.7911676635742187	0		3.0814912109375	-0.026686042785644532	0		4.63714208984375	0.09522638702392579	0		5.6094560546875	0.2153592987060547	0		-0.30482977294921876	5.93097412109375	0		
0.038395503997802734	0.0036951169967651366	0		0.519216552734375	-2.37709912109375	0		-1.160036865234375	0.09600358581542968	0		-0.728552001953125	-2.558883544921875	0		1.3212828369140626	-0.786386474609375	0		3.0639599609375	-0.04811525344848633	0		4.6291826171875	0.10249374389648437	0		5.6030400390625	0.22611724853515625	0		-0.1750814971923828	5.949966796875	0		
0.007266423225402832	0.001809319019317627	0		0.5398347778320313	-2.3830361328125	0		-1.0922362060546875	0.08927942657470703	0		-0.6748565673828125	-2.560368896484375	0		1.33808349609375	-0.7893081665039062	0		3.08422705078125	-0.03023431968688965	0		4.621978515625	0.09578511810302734	0		5.60500830078125	0.21232826232910157	0		-0.19290895080566406	5.939845703125	0		
0.015344792366027833	0.007198103904724121	0		0.5345802612304688	-2.38543115234375	0		-1.0952667236328124	0.08896720886230469	0		-0.7140591430664063	-2.559007568359375	0		1.3329288330078124	-0.7927627563476562	0		3.0519580078125	-0.04228919219970703	0		4.61894873046875	0.09504468536376953	0		5.6028359375	0.21093386840820313	0		-0.2229071350097656	5.9189990234375	0		
-0.012601701736450196	0.007332258224487305	0		0.53041796875	-2.3878056640625	0		-1.1081708984375	0.09088584899902344	0		-0.719233642578125	-2.561272705078125	0		1.3299200439453125	-0.7932146606445313	0		3.064000244140625	-0.043159442901611327	0		4.63184326171875	0.08604380035400391	0		5.600724609375	0.20963508605957032	0		-0.19704617309570313	5.9381044921875	0		
-0.005641704082489014	-0.0031794559955596923	0		0.48640237426757815	-2.38835009765625	0		-1.1760130615234374	0.0909264907836914	0		-0.7541050415039062	-2.5539111328125	0		1.3270247802734374	-0.7936224365234374	0		3.075955810546875	-0.05397926712036133	0		4.616970703125	0.08364828491210938	0		5.59451220703125	0.22075184631347655	0		-0.19850308227539062	5.93678076171875	0		
0.02684367370605469	0.0058480300903320315	0		0.541552734375	-2.388807373046875	0		-1.0937689208984376	0.08704155731201171	0		-0.7159223022460938	-2.551953125	0		1.317368896484375	-0.788847900390625	0		3.07578076171875	-0.027498878479003907	0		4.617705078125	0.10501142120361329	0		5.599708984375	0.21932223510742188	0		-0.1866341247558594	5.946236328125	0		
-0.00375494909286499	0.0031629369258880614	0		0.4751168212890625	-2.375811279296875	0		-1.102208251953125	0.09198471069335938	0		-0.7226973266601563	-2.5560703125	0		1.323735595703125	-0.79134423828125	0		3.025926025390625	-0.04298525619506836	0		4.6079296875	0.09263872528076172	0		5.5949375	0.20637318420410156	0		-0.20400177001953124	5.93730712890625	0		
